<svg width="24" height="24" viewBox="0 0 24 24" fill="none" xmlns="http://www.w3.org/2000/svg">
<rect width="24" height="24" rx="4" fill="#E41F2B"/>
<path d="M0.012207 8H23.9876V16.784H0.012207V8Z" fill="#E41F2B"/>
<path d="M21.6134 10.1066C21.6227 10.0483 21.6576 9.99938 21.6833 9.95045C21.7392 9.83861 21.7951 9.7291 21.8254 9.60795C21.837 9.55669 21.858 9.49378 21.8114 9.45417C21.7578 9.40757 21.6996 9.44718 21.6506 9.47514C21.5178 9.55203 21.4013 9.64756 21.2872 9.74541C20.9377 10.0413 20.6255 10.3768 20.3389 10.7357C19.8076 11.402 19.3393 12.1103 18.9106 12.8443C18.8244 12.9911 18.7382 13.1379 18.6636 13.3056C18.7289 13.3056 18.7661 13.2683 18.8034 13.2404C19.0108 13.0819 19.2112 12.9165 19.4022 12.7418C19.7121 12.4598 20.0103 12.1663 20.2993 11.861C20.5159 11.6327 20.7233 11.3974 20.9167 11.1481C21.0076 11.0316 21.0798 11.0059 21.2452 11.0362C21.201 11.1411 21.1287 11.2273 21.0588 11.3135C20.6627 11.8028 20.2387 12.2664 19.7843 12.7022C19.3906 13.0773 18.9712 13.4244 18.5215 13.7297C18.4376 13.7856 18.3794 13.8508 18.3374 13.9464C18.2233 14.205 18.1161 14.4683 18.0299 14.7385C17.9996 14.8341 17.9739 14.9319 17.9576 15.0321C17.946 15.0974 17.9483 15.1626 17.9646 15.2278C17.9972 15.3513 18.0811 15.3933 18.1906 15.3257C18.3118 15.2535 18.405 15.1463 18.4935 15.0391C18.7265 14.7618 18.9176 14.4543 19.1203 14.1561C19.3929 13.7576 19.6841 13.3755 20.036 13.0423C20.22 12.8676 20.4227 12.7185 20.6418 12.5926C20.7606 12.5251 20.8934 12.4901 21.0309 12.4878C21.194 12.4855 21.3268 12.5414 21.4153 12.6835C21.42 12.6928 21.4316 12.6975 21.4386 12.7022C21.4456 12.6998 21.4503 12.6998 21.4526 12.6998C21.5108 12.56 21.625 12.546 21.7578 12.553C21.9 12.5624 22.0444 12.553 22.1889 12.5554C22.2704 12.5577 22.2797 12.5717 22.2378 12.6439L21.6926 13.5666C21.385 14.0885 21.0751 14.6081 20.7839 15.1393C20.7559 15.1882 20.714 15.2465 20.7653 15.2977C20.8165 15.3513 20.8748 15.3094 20.9237 15.2791C21.0565 15.1976 21.173 15.095 21.2778 14.9785C21.4759 14.7595 21.6576 14.5265 21.83 14.2889C21.886 14.212 22.0001 14.177 22.0863 14.2096C22.1143 14.2213 22.1213 14.2399 22.1096 14.2632C22.1003 14.2842 22.0863 14.3028 22.0724 14.3238C21.8254 14.7013 21.5458 15.0531 21.2336 15.3793C21.0635 15.554 20.8841 15.7218 20.6721 15.8476C20.5579 15.9152 20.4391 15.9688 20.3062 15.9921C20.0826 16.0317 19.9125 15.9198 19.8938 15.6962C19.8892 15.6309 19.8799 15.568 19.8729 15.5004C19.817 15.5004 19.796 15.5424 19.7657 15.5703C19.6026 15.7148 19.4302 15.8453 19.2321 15.9431C19.1273 15.9944 19.0178 16.013 18.9036 15.9944C18.7242 15.9641 18.5984 15.8266 18.5727 15.6379C18.5588 15.5424 18.5658 15.4469 18.5658 15.3397C18.5145 15.3583 18.4935 15.3956 18.4632 15.4259C18.3025 15.596 18.137 15.7591 17.9367 15.8802C17.8458 15.9362 17.7479 15.9734 17.6454 15.9944C17.3984 16.0433 17.1678 15.8546 17.1235 15.5797C17.0955 15.3979 17.1212 15.2232 17.1631 15.0484C17.2214 14.7991 17.3099 14.5568 17.3915 14.3145C17.4008 14.2889 17.4101 14.2632 17.4171 14.2376C17.445 14.1444 17.4404 14.1421 17.3402 14.1537C17.3285 14.1561 17.3169 14.1561 17.3052 14.1584C17.035 14.177 17.0862 14.1561 16.9511 14.3727C16.7391 14.7129 16.5107 15.0391 16.2311 15.3304C16.0168 15.554 15.7791 15.7428 15.5065 15.8896C15.397 15.9501 15.2782 15.9851 15.1523 15.9991C14.8984 16.0247 14.712 15.8919 14.6561 15.6426C14.6048 15.4119 14.6398 15.1859 14.7073 14.9646C14.8192 14.6034 14.9823 14.2632 15.1966 13.951C15.4203 13.6271 15.658 13.3173 15.9492 13.0516C16.1799 12.8396 16.4338 12.6625 16.7251 12.5484C16.8276 12.5088 16.9324 12.4855 17.042 12.4878C17.3262 12.4901 17.4683 12.6299 17.4846 12.9165C17.4963 13.1215 17.459 13.3173 17.3868 13.5083C17.3449 13.6202 17.2983 13.732 17.2447 13.8392C17.2307 13.8648 17.2027 13.8951 17.2214 13.9254C17.2447 13.9627 17.2866 13.9347 17.3192 13.9324C17.3472 13.9324 17.3728 13.9231 17.3984 13.9184C17.5126 13.8974 17.5872 13.8345 17.6408 13.7273C17.967 13.0796 18.3351 12.4528 18.7498 11.8564C19.2578 11.1271 19.8333 10.4561 20.5043 9.87356C20.7792 9.63591 21.0565 9.39592 21.3943 9.24214C21.5272 9.18156 21.6623 9.13729 21.8091 9.14428C21.9815 9.15127 22.0607 9.23049 22.07 9.40524C22.077 9.53572 22.0467 9.65921 22.0025 9.78036C21.9792 9.84094 21.9489 9.90152 21.9209 9.95977C21.8557 10.0856 21.7718 10.1252 21.6134 10.1066ZM19.6259 15.3024C19.6888 15.3001 19.7494 15.2535 19.8076 15.1999C20.0197 15.0088 20.1851 14.7758 20.3342 14.5358C20.6301 14.0652 20.9144 13.5899 21.2056 13.1169C21.2289 13.0773 21.2545 13.0377 21.2685 12.9934C21.2965 12.9049 21.2452 12.8466 21.152 12.8606C21.0705 12.8722 20.9936 12.9025 20.9307 12.9584C20.8165 13.0633 20.693 13.1588 20.5882 13.273C20.4111 13.4687 20.2387 13.6691 20.0896 13.8858C19.8682 14.205 19.6608 14.5335 19.5257 14.9016C19.4977 14.9785 19.4721 15.0578 19.4675 15.137C19.4605 15.2442 19.5141 15.3047 19.6259 15.3024ZM16.2265 13.6341C16.1682 13.6854 16.1309 13.7553 16.0867 13.8182C15.8816 14.1118 15.6952 14.4147 15.5694 14.7525C15.5345 14.8434 15.5112 14.9389 15.5042 15.0345C15.4879 15.2418 15.63 15.349 15.8234 15.2744C15.9189 15.2372 16.0005 15.1789 16.075 15.1113C16.3546 14.8597 16.569 14.5545 16.7577 14.2329C16.8183 14.1304 16.8159 14.1281 16.7041 14.0698C16.548 13.9883 16.4082 13.8881 16.3057 13.739C16.2824 13.704 16.2684 13.6621 16.2265 13.6341ZM17.24 13.0889V13.0423C17.2284 12.8443 17.1095 12.7697 16.9231 12.8396C16.8113 12.8816 16.7181 12.9491 16.6412 13.0377C16.5643 13.1262 16.5084 13.2264 16.5014 13.3499C16.4828 13.6365 16.6901 13.7972 16.8905 13.8834C16.9418 13.9044 16.9697 13.8765 16.9907 13.8345C17.0536 13.7157 17.1188 13.5945 17.1585 13.4641C17.1957 13.3406 17.2447 13.2194 17.24 13.0889ZM10.8139 10.957C10.8489 10.8522 10.9281 10.8428 11.0213 10.8475C11.1681 10.8522 11.3172 10.8498 11.464 10.8498C11.6038 10.8498 11.6108 10.8615 11.5362 10.985C11.3755 11.2552 11.2124 11.5232 11.0493 11.7935C10.737 12.313 10.4248 12.8303 10.1126 13.3499C10.0916 13.3872 10.0707 13.4244 10.066 13.4687C10.0567 13.5573 10.1033 13.5969 10.1848 13.5642C10.2268 13.5479 10.2664 13.52 10.306 13.4943C10.532 13.3406 10.7137 13.1379 10.8885 12.9282C10.9724 12.828 11.0539 12.7231 11.1378 12.6206C11.1914 12.553 11.3335 12.5158 11.4104 12.5484C11.4314 12.5577 11.4384 12.5763 11.4267 12.595C11.4104 12.6206 11.3918 12.6462 11.3731 12.6719C11.1425 12.9841 10.9071 13.294 10.6369 13.5712C10.3945 13.8205 10.1429 14.0675 9.82137 14.219C9.71885 14.2679 9.61167 14.3075 9.4975 14.2912C9.33207 14.2679 9.22023 14.1444 9.20625 13.965C9.20159 13.9161 9.20625 13.8648 9.20625 13.8042C9.15034 13.8229 9.12937 13.8625 9.09908 13.8904C8.96394 14.0209 8.81482 14.1304 8.64473 14.212C8.53056 14.2656 8.41173 14.2912 8.28359 14.2865C8.05758 14.2772 7.91778 14.1397 7.90613 13.9114C7.89914 13.7902 7.91545 13.6714 7.93875 13.5526C7.94574 13.52 7.96438 13.4874 7.94574 13.4431C7.82458 13.5526 7.7174 13.6691 7.59158 13.7669C7.40286 13.9161 7.2118 14.0629 6.99045 14.1654C6.79007 14.2562 6.58504 14.3215 6.35903 14.2842C6.08409 14.2376 5.84876 14.0163 5.81847 13.7087C5.79284 13.4384 5.85575 13.1845 5.95128 12.9375C6.03283 12.7231 6.13302 12.5181 6.26816 12.2967C6.14933 12.3247 6.05846 12.3457 5.96526 12.3666C5.92565 12.376 5.91167 12.4086 5.89536 12.4389C5.65771 12.8559 5.3618 13.2287 5.03327 13.5759C4.87017 13.7483 4.69776 13.9091 4.50437 14.0465C4.3669 14.1421 4.22244 14.2236 4.05934 14.2679C3.6982 14.3681 3.40229 14.1607 3.37433 13.7856C3.35802 13.5642 3.39297 13.3499 3.46054 13.1425C3.61432 12.6812 3.8613 12.2711 4.16419 11.8913C4.37855 11.6234 4.61621 11.3787 4.88881 11.1714C5.09385 11.0152 5.31287 10.8824 5.55985 10.8056C5.6647 10.7729 5.77187 10.752 5.88138 10.7683C6.13069 10.8009 6.28214 10.9663 6.29612 11.2203C6.3101 11.4789 6.23554 11.7189 6.13535 11.9519C6.11904 11.9892 6.08875 12.0241 6.09807 12.0777C6.16098 12.0824 6.21224 12.0567 6.2635 12.0311C6.46155 11.9356 6.63163 11.8028 6.79706 11.6607C6.98579 11.4976 7.15122 11.3135 7.34694 11.1597C7.53333 11.0129 7.72905 10.8801 7.95739 10.8056C8.10418 10.7566 8.25563 10.7543 8.40474 10.7892C8.65172 10.8475 8.78686 11.0991 8.72628 11.3787C8.67968 11.5931 8.57483 11.7772 8.42571 11.9356C8.37678 11.9868 8.32087 12.0288 8.2533 12.0498C8.07389 12.1057 7.93875 11.9845 7.97836 11.8028C8.02729 11.5721 8.16243 11.4207 8.39542 11.3694C8.45367 11.3554 8.50027 11.3461 8.49794 11.2715C8.49561 11.1993 8.456 11.1434 8.38377 11.1317C8.31854 11.1201 8.2533 11.1317 8.19039 11.1574C8.05059 11.2133 7.94108 11.3135 7.83157 11.4137C7.33063 11.875 6.98113 12.4365 6.73415 13.068C6.68755 13.1845 6.65493 13.3033 6.66425 13.4314C6.68056 13.697 6.84133 13.8159 7.09763 13.7413C7.28869 13.6854 7.44246 13.5666 7.58692 13.4361C7.96438 13.0936 8.28359 12.6975 8.58648 12.2874C8.83812 11.9472 9.10607 11.6187 9.41595 11.3298C9.63963 11.1201 9.87263 10.9197 10.1709 10.8149C10.2291 10.7939 10.2897 10.7799 10.3526 10.7729C10.4924 10.7566 10.6136 10.7939 10.7161 10.8894C10.744 10.9081 10.7627 10.9407 10.8139 10.957ZM10.5041 11.1271C10.4621 11.1248 10.4155 11.1434 10.3689 11.1644C10.2478 11.2203 10.1685 11.3205 10.08 11.4137C9.66526 11.8587 9.31576 12.3527 9.0152 12.8792C8.91967 13.047 8.83113 13.2217 8.80084 13.4175C8.77987 13.5596 8.85909 13.6248 8.9919 13.5736C9.10374 13.5316 9.19228 13.4571 9.26916 13.3685C9.45556 13.1542 9.61866 12.9235 9.77244 12.6858C10.0637 12.2315 10.3386 11.7678 10.6042 11.2995C10.6718 11.1877 10.6369 11.1271 10.5041 11.1271ZM5.00298 11.8936C4.99599 11.896 4.98667 11.8983 4.98434 11.903C4.75368 12.2245 4.53699 12.5554 4.38554 12.9212C4.32962 13.0563 4.28535 13.1984 4.29001 13.3499C4.29467 13.5153 4.39486 13.5922 4.56029 13.5573C4.68378 13.5316 4.77931 13.4617 4.87017 13.3802C5.14278 13.1332 5.35248 12.835 5.54587 12.5274C5.56917 12.4925 5.59247 12.4552 5.61344 12.4179C5.65305 12.3457 5.65072 12.3363 5.57849 12.3084C5.56684 12.3037 5.55752 12.3014 5.54587 12.2967C5.34316 12.2175 5.16608 12.1057 5.04259 11.9193C5.03094 11.9076 5.02162 11.896 5.00298 11.8936ZM5.27326 11.6886C5.27093 11.7399 5.28724 11.7911 5.31753 11.8377C5.41539 11.9868 5.56451 12.0567 5.73226 12.0894C5.78352 12.0987 5.81148 12.0731 5.83245 12.0288C5.9373 11.8261 6.0072 11.6117 6.02118 11.3857C6.03283 11.204 5.94895 11.0898 5.77653 11.1108C5.53655 11.1411 5.27326 11.4393 5.27326 11.6886Z" fill="white"/>
<path d="M16.6645 9.42846C16.5829 9.37487 16.5084 9.38885 16.4361 9.39817C16.2544 9.42147 16.096 9.50069 15.9375 9.58923C15.5368 9.81058 15.1849 10.0972 14.8541 10.4094C14.423 10.8148 14.0246 11.2482 13.6774 11.7281C13.2953 12.2524 12.9528 12.8023 12.6965 13.4011C12.5334 13.7855 12.4123 14.1816 12.3587 14.5963C12.333 14.8037 12.3587 15.0087 12.4798 15.1882C12.615 15.3909 12.8503 15.4841 13.0903 15.4351C13.2208 15.4072 13.3419 15.3536 13.4538 15.2837C13.7613 15.088 14.0176 14.834 14.2366 14.5451C14.4417 14.2748 14.6141 13.9859 14.7306 13.6644C14.7865 13.5059 14.8261 13.3451 14.8378 13.1774C14.8401 13.1541 14.8401 13.1308 14.8378 13.1075C14.8238 12.8698 14.6677 12.7883 14.4626 12.9164C14.3089 13.012 14.197 13.1541 14.0992 13.3032C13.9803 13.4873 13.8988 13.69 13.8499 13.902C13.8359 13.9603 13.8102 13.9952 13.7543 14.0232C13.4538 14.1676 13.1951 14.3703 12.9575 14.601C12.9458 14.6127 12.9342 14.622 12.9225 14.6313C12.9179 14.636 12.9086 14.6336 12.9016 14.636C12.8759 14.6196 12.8853 14.594 12.8876 14.573C12.9458 14.1653 13.06 13.7762 13.2813 13.4244C13.505 13.0679 13.7986 12.786 14.1784 12.5996C14.3485 12.5157 14.5256 12.4621 14.7189 12.5087C14.8681 12.546 14.9729 12.6368 15.0312 12.7813C15.0941 12.9374 15.0871 13.1005 15.0731 13.2636C15.0475 13.5735 14.9216 13.8484 14.7818 14.1187C14.6397 14.396 14.472 14.6569 14.2739 14.8969C13.9407 15.3047 13.5516 15.6472 13.0716 15.8708C12.799 15.999 12.5078 16.0479 12.2096 15.978C11.8251 15.8848 11.5828 15.6308 11.457 15.2674C11.3125 14.8526 11.3335 14.4309 11.4686 14.0208C11.648 13.4686 11.9043 12.9514 12.1956 12.4481C12.4193 12.0637 12.6686 11.7002 12.9505 11.3577C13.3955 10.8148 13.8965 10.3302 14.4673 9.92008C14.8354 9.6568 15.2199 9.42613 15.6369 9.25138C15.9049 9.13954 16.1845 9.08129 16.4757 9.08362C16.6318 9.08595 16.7763 9.13022 16.8975 9.22575C16.9487 9.26536 16.9883 9.26769 17.0443 9.24672C17.3006 9.14653 17.5685 9.09993 17.8411 9.09061C18.2302 9.07663 18.596 9.16983 18.9362 9.3539C19.3113 9.55661 19.6864 9.76398 20.0592 9.96901C20.0732 9.976 20.0872 9.98299 20.0988 9.99231C20.1618 10.0343 20.1618 10.0412 20.1082 10.0972C19.9614 10.2463 19.8123 10.3931 19.6678 10.5468C19.6189 10.5981 19.5769 10.5934 19.5257 10.5608L18.9944 10.2463C18.7614 10.1065 18.5284 9.96435 18.2954 9.82922C18.0392 9.6801 17.7619 9.57991 17.4706 9.51933C17.3751 9.49836 17.2772 9.49603 17.1817 9.517C17.1375 9.52632 17.1072 9.54496 17.1072 9.60088C17.0978 10.0762 16.9301 10.5049 16.7017 10.9103C16.527 11.2202 16.301 11.4905 16.0004 11.6932C15.8699 11.7794 15.7301 11.847 15.581 11.8889C15.3201 11.9658 15.1127 11.8167 15.0964 11.5441C15.0871 11.374 15.1267 11.2132 15.1896 11.0571C15.3643 10.6237 15.6556 10.2719 15.9888 9.9527C16.1752 9.77563 16.3779 9.61952 16.5946 9.48205C16.6109 9.46341 16.6295 9.45176 16.6645 9.42846ZM16.8439 9.81058C16.8485 9.62884 16.8439 9.62185 16.7181 9.69175C16.4804 9.82456 16.2707 9.99697 16.0773 10.1904C15.7931 10.4723 15.5624 10.7915 15.3923 11.1526C15.3504 11.2435 15.3154 11.339 15.3131 11.4416C15.3108 11.6047 15.4296 11.6909 15.5834 11.6419C15.7651 11.586 15.9142 11.4765 16.054 11.3484C16.294 11.1247 16.4734 10.8591 16.6179 10.5701C16.7437 10.3208 16.8252 10.0529 16.8439 9.81058ZM10.7743 16.1434C10.6555 16.0782 10.5553 16.02 10.4504 15.9687C9.99608 15.7497 9.52077 15.6215 9.0105 15.6472C8.74256 15.6611 8.50024 15.738 8.29986 15.9221C8.26957 15.9501 8.24161 15.9827 8.21365 16.0153C8.1321 16.1132 8.12977 16.1155 8.05988 16.013C7.94105 15.8405 7.78727 15.7077 7.6032 15.6052C7.33758 15.4561 7.04867 15.3909 6.74577 15.3652C6.18425 15.3186 5.63903 15.4142 5.09848 15.5446C4.50667 15.6891 3.91485 15.8336 3.31372 15.9384C3.03412 15.9873 2.7522 16.0223 2.46794 15.9757C1.96466 15.8918 1.53828 15.6798 1.2447 15.2487C1.11655 15.0623 1.06296 14.848 1.02569 14.629C0.939476 14.128 1.00705 13.6387 1.16082 13.1611C1.34955 12.5716 1.64546 12.038 2.00427 11.5348C2.32581 11.0827 2.69861 10.6773 3.10402 10.3045C3.59798 9.85019 4.14319 9.46574 4.77461 9.22109C5.03324 9.1209 5.29886 9.05566 5.58078 9.05566C5.99785 9.05799 6.23784 9.31895 6.17959 9.7267C6.14464 9.96901 6.03979 10.1857 5.86271 10.3604C5.79747 10.4234 5.72291 10.47 5.62971 10.4863C5.50855 10.5072 5.40604 10.4373 5.38041 10.3162C5.3408 10.1275 5.44099 9.91076 5.61573 9.81291C5.68796 9.7733 5.76252 9.74068 5.84407 9.73136C5.89999 9.72437 5.92096 9.68942 5.92562 9.63583C5.93727 9.50069 5.86271 9.41215 5.72524 9.40283C5.62738 9.39584 5.53185 9.41448 5.43866 9.44477C5.0845 9.5636 4.77461 9.76398 4.49269 10.0063C3.84728 10.5632 3.30906 11.2155 2.84073 11.9239C2.53085 12.3922 2.29086 12.8978 2.14174 13.4407C2.04854 13.7809 1.97864 14.128 2.00427 14.4868C2.02524 14.7851 2.13009 15.0437 2.3561 15.2487C2.48425 15.3629 2.63337 15.4351 2.79414 15.4817C2.93859 15.5237 3.08771 15.5516 3.24149 15.5586C3.72612 15.5843 4.20144 15.512 4.67209 15.4025C5.28488 15.2581 5.89533 15.1136 6.50811 14.9691C6.95547 14.862 7.40748 14.7874 7.86649 14.7967C8.65402 14.813 9.38097 15.0227 10.038 15.4654C10.271 15.6215 10.4807 15.8056 10.6788 16.0036C10.716 16.0363 10.7533 16.0712 10.7743 16.1434ZM23.5961 9.12323C23.6078 9.16284 23.5891 9.18381 23.5752 9.20711C23.2327 9.7733 22.7806 10.2276 22.1982 10.5468C21.8207 10.7542 21.4223 10.8987 20.9889 10.9383C20.8095 10.9546 20.6324 10.9453 20.4553 10.908C20.3668 10.8894 20.3598 10.873 20.4134 10.8055C20.5485 10.6354 20.6907 10.47 20.8398 10.3115C20.8771 10.2719 20.9213 10.2742 20.9679 10.2742C21.138 10.2742 21.3081 10.2812 21.4805 10.2579C21.872 10.2043 22.2284 10.0599 22.5733 9.87581C22.9274 9.68476 23.242 9.44011 23.5356 9.16517C23.5472 9.15352 23.5589 9.1442 23.5705 9.13488C23.5752 9.12789 23.5822 9.12789 23.5961 9.12323ZM12.4542 10.8474C12.5427 10.8474 12.6336 10.8451 12.7222 10.8474C12.7804 10.8497 12.7921 10.8684 12.7594 10.9196C12.6569 11.0897 12.5521 11.2552 12.4472 11.4252C12.4216 11.4672 12.389 11.4835 12.3424 11.4812C12.1676 11.4812 11.9929 11.4835 11.8181 11.4788C11.7389 11.4788 11.7273 11.4579 11.7692 11.388C11.8671 11.2249 11.9672 11.0641 12.0674 10.901C12.0931 10.8591 12.1257 10.8428 12.1746 10.8451C12.2678 10.8474 12.361 10.8474 12.4542 10.8474Z" fill="white"/>
</svg>
