<svg width="24" height="24" viewBox="0 0 24 24" fill="none" xmlns="http://www.w3.org/2000/svg">
<path d="M11.5201 22.6641C11.715 22.5666 16.783 20.3737 18.3911 19.058C20.048 17.6935 20.9251 15.7443 20.9251 13.4052V2.44072L20.7789 2.39199C16.7343 0.199092 11.715 0.345285 11.4713 0.345285C11.2764 0.345285 6.25712 0.199092 2.21245 2.39199L2.11499 2.44072V13.4539C2.11499 15.793 2.99215 17.7422 4.649 19.1067C6.25712 20.4224 11.3251 22.6153 11.5201 22.6641Z" fill="#341B14"/>
<path d="M11.5199 22.9077C11.5199 22.9077 6.15952 20.5686 4.50266 19.2529C2.74835 17.7909 1.91992 15.793 1.91992 13.5026V2.09956C6.15952 -0.1908 11.5199 0.004124 11.5199 0.004124C11.5199 0.004124 16.8803 -0.1908 21.1199 2.09956V13.4539C21.1199 15.7442 20.2915 17.7422 18.5372 19.2041C16.8803 20.5686 11.5199 22.9077 11.5199 22.9077ZM2.69962 13.5026C2.69962 15.6468 3.47931 17.4011 4.98997 18.6194C6.35444 19.7402 10.3991 21.5432 11.5199 22.0305C12.6407 21.5432 16.7341 19.6914 18.0499 18.6194C19.5605 17.4011 20.3402 15.598 20.3402 13.5026V2.29448C14.6874 1.75844 7.96256 2.05082 2.69962 6.92392V13.5026Z" fill="#FFB406"/>
<path d="M16.9293 11.895C17.6603 12.3336 17.9527 12.6259 18.0014 13.162C18.0014 13.7468 17.6116 14.0879 16.9781 14.0879C16.442 14.0879 15.8085 13.7955 15.3699 13.4056V14.965C15.906 15.2574 16.5395 15.5011 17.2217 15.5011C18.8786 15.5011 19.6583 14.3315 19.6583 13.2594C19.707 12.2848 19.4146 11.5051 18.0014 10.6767C17.3679 10.2869 16.8806 10.0432 16.8806 9.45843C16.8806 8.87366 17.4166 8.63 17.8552 8.63C18.44 8.63 19.0248 8.97112 19.3659 9.31223V7.85031C19.0735 7.60665 18.44 7.26553 17.5141 7.31427C16.3933 7.363 15.2238 8.14269 15.2238 9.50716C15.2725 10.433 15.5649 11.1153 16.9293 11.895ZM11.1791 15.4036C11.3253 15.4523 11.5689 15.5011 11.9588 15.5011C13.8593 15.5011 14.9314 13.7955 14.9314 11.3589C14.9314 8.87366 13.8106 7.363 11.8126 7.363C10.8867 7.363 10.1557 7.55792 9.52223 7.94777V18.961H11.1791V15.4036ZM11.1791 8.77619C11.3253 8.72746 11.5689 8.63 11.7639 8.63C12.7385 8.63 13.1283 9.4097 13.1283 11.3102C13.1283 13.162 12.641 14.0391 11.6664 14.0391C11.4227 14.0391 11.2278 13.9904 11.1303 13.9417V8.77619H11.1791ZM6.06233 15.5011C7.08568 15.5011 7.96284 15.2574 8.59634 14.8188V7.46046H6.89076V13.8442C6.69583 13.9904 6.45218 14.0391 6.11106 14.0391C5.33137 14.0391 5.2339 13.3082 5.2339 12.8696V7.46046H3.52832V12.7721C3.52832 14.5752 4.40548 15.5011 6.06233 15.5011ZM17.4166 22.0797V23.2006H17.6116V22.762H17.6603L17.9527 23.2006H18.1963C18.1963 23.2006 17.904 22.762 17.8552 22.7132C18.0014 22.6645 18.0989 22.5671 18.0989 22.4209C18.0989 22.2747 18.0014 22.0797 17.709 22.0797H17.4166ZM17.709 22.2259C17.8552 22.2259 17.904 22.3234 17.904 22.3721C17.904 22.4696 17.8552 22.5671 17.6603 22.5671H17.6116V22.2259H17.709Z" fill="#FFB406"/>
<path d="M18.4886 22.6153C18.4886 23.0052 18.1475 23.3463 17.7577 23.3463C17.3678 23.3463 17.0267 23.0052 17.0267 22.6153C17.0267 22.2255 17.3678 21.8844 17.7577 21.8844C18.1963 21.8844 18.4886 22.2255 18.4886 22.6153ZM17.7577 21.6895C17.2704 21.6895 16.8318 22.0793 16.8318 22.6153C16.8318 23.1027 17.2216 23.5412 17.7577 23.5412C18.245 23.5412 18.6836 23.1514 18.6836 22.6153C18.6836 22.128 18.245 21.6895 17.7577 21.6895Z" fill="#FFB406"/>
</svg>
