<svg width="16" height="16" viewBox="0 0 16 16" fill="none" xmlns="http://www.w3.org/2000/svg">
<path d="M9.96392 11.5157L10.4093 11.048L9.96392 11.5157ZM10.4031 11.9641L10.9542 11.6273L10.4031 11.9641ZM10.0189 12.9249L9.85211 12.301L10.0189 12.9249ZM9.96392 4.24464L9.51859 3.77691L9.96392 4.24464ZM10.4032 3.79612L9.85216 3.45931L10.4032 3.79612ZM10.019 2.8354L9.85216 3.45931L10.019 2.8354ZM9.04177 7.88017C9.04177 6.63994 9.5634 5.51772 10.4093 4.71238L9.51859 3.77691C8.4303 4.81307 7.75011 6.26799 7.75011 7.88017H9.04177ZM10.4093 11.048C9.5634 10.2426 9.04177 9.1204 9.04177 7.88017H7.75011C7.75011 9.49235 8.4303 10.9473 9.51859 11.9834L10.4093 11.048ZM9.68754 12.301C7.1788 12.301 5.16671 10.3099 5.16671 7.88014H3.87504C3.87504 11.0469 6.48934 13.5926 9.68754 13.5926V12.301ZM5.16671 7.88014C5.16671 5.45043 7.1788 3.45931 9.68754 3.45931V2.16764C6.48934 2.16764 3.87504 4.71337 3.87504 7.88014H5.16671ZM9.51859 11.9834C9.6531 12.1115 9.74416 12.1983 9.80784 12.2623C9.83919 12.2938 9.85743 12.3133 9.86741 12.3247C9.87962 12.3386 9.86884 12.3284 9.85211 12.301L10.9542 11.6273C10.8868 11.5171 10.7895 11.4176 10.7235 11.3513C10.6445 11.2718 10.5381 11.1706 10.4093 11.048L9.51859 11.9834ZM9.68754 13.5926C9.82263 13.5926 10.0035 13.5975 10.1857 13.5488L9.85211 12.301C9.86782 12.2968 9.87396 12.2979 9.85075 12.2991C9.81984 12.3008 9.77707 12.301 9.68754 12.301V13.5926ZM9.85211 12.301L10.1857 13.5488C11.0205 13.3256 11.4049 12.3646 10.9542 11.6273L9.85211 12.301ZM10.4093 4.71238C10.5381 4.58973 10.6445 4.48847 10.7236 4.40902C10.7896 4.34268 10.8869 4.24315 10.9543 4.13294L9.85216 3.45931C9.8689 3.43192 9.87968 3.42164 9.86747 3.43555C9.85749 3.44694 9.83925 3.46649 9.8079 3.498C9.7442 3.56202 9.65312 3.64882 9.51859 3.77691L10.4093 4.71238ZM9.68754 3.45931C9.7771 3.45931 9.81988 3.45951 9.8508 3.46115C9.87403 3.46238 9.86788 3.46351 9.85216 3.45931L10.1859 2.21149C10.0035 2.16274 9.82267 2.16764 9.68754 2.16764V3.45931ZM10.9543 4.13294C11.4049 3.39567 11.0206 2.43472 10.1859 2.21149L9.85216 3.45931L10.9543 4.13294Z" fill="#626161"/>
</svg>
