<svg width="22" height="22" viewBox="0 0 22 22" fill="none" xmlns="http://www.w3.org/2000/svg">
<path d="M0 11C0 4.92487 4.92487 0 11 0H11.7333C17.4035 0 22 4.59654 22 10.2667C22 16.7468 16.7468 22 10.2667 22H0V11Z" fill="#27AE60"/>
<path d="M0.458333 11C0.458333 5.178 5.178 0.458333 11 0.458333H11.7333C17.1503 0.458333 21.5417 4.84967 21.5417 10.2667C21.5417 16.4937 16.4937 21.5417 10.2667 21.5417H0.458333V11Z" stroke="white" stroke-opacity="0.1" stroke-width="0.916667"/>
<path d="M10.408 6.308C11.0987 6.308 11.7567 6.42467 12.382 6.658C13.0073 6.882 13.5627 7.22267 14.048 7.68C14.5427 8.128 14.93 8.688 15.21 9.36C15.49 10.0227 15.63 10.7833 15.63 11.642C15.63 11.8007 15.616 12.0153 15.588 12.286C15.5693 12.5567 15.5227 12.846 15.448 13.154C15.3733 13.462 15.2567 13.756 15.098 14.036C14.9487 14.3067 14.7387 14.5307 14.468 14.708C14.2067 14.8853 13.8753 14.974 13.474 14.974C13.138 14.974 12.8767 14.9133 12.69 14.792C12.5127 14.68 12.382 14.5353 12.298 14.358C12.2233 14.1807 12.172 14.0033 12.144 13.826C11.8547 14.1153 11.5047 14.3487 11.094 14.526C10.6833 14.694 10.24 14.778 9.764 14.778C9.07333 14.778 8.54133 14.596 8.168 14.232C7.804 13.8587 7.622 13.3873 7.622 12.818C7.622 12.3047 7.748 11.9033 8 11.614C8.26133 11.3153 8.59267 11.1007 8.994 10.97C9.40467 10.8393 9.82 10.774 10.24 10.774C10.6133 10.774 10.9353 10.8113 11.206 10.886C11.4767 10.9513 11.682 11.0167 11.822 11.082C11.822 10.746 11.7753 10.4473 11.682 10.186C11.598 9.92467 11.4393 9.724 11.206 9.584C10.9727 9.43467 10.646 9.36 10.226 9.36C9.84333 9.36 9.49333 9.416 9.176 9.528C8.85867 9.64 8.588 9.78933 8.364 9.976L8 8.982C8.34533 8.74867 8.71867 8.576 9.12 8.464C9.53067 8.34267 9.96 8.282 10.408 8.282C11.0147 8.282 11.4907 8.37533 11.836 8.562C12.1813 8.73933 12.4287 8.97733 12.578 9.276C12.7367 9.56533 12.8347 9.88267 12.872 10.228C12.9187 10.564 12.942 10.8907 12.942 11.208V12.552C12.942 12.8227 12.956 13.0793 12.984 13.322C13.012 13.5647 13.0773 13.7607 13.18 13.91C13.2827 14.0593 13.4413 14.134 13.656 14.134C13.908 14.134 14.1133 14.0453 14.272 13.868C14.4307 13.6813 14.552 13.448 14.636 13.168C14.72 12.888 14.776 12.608 14.804 12.328C14.832 12.0387 14.846 11.8007 14.846 11.614C14.846 10.9607 14.7387 10.3587 14.524 9.808C14.3093 9.248 14.0013 8.76267 13.6 8.352C13.1987 7.94133 12.7227 7.624 12.172 7.4C11.6307 7.176 11.024 7.064 10.352 7.064C9.69867 7.064 9.09667 7.176 8.546 7.4C7.99533 7.61467 7.51933 7.92267 7.118 8.324C6.726 8.72533 6.418 9.20133 6.194 9.752C5.97933 10.2933 5.872 10.886 5.872 11.53C5.872 12.1553 5.97467 12.7433 6.18 13.294C6.38533 13.8353 6.67467 14.3113 7.048 14.722C7.43067 15.1327 7.888 15.4547 8.42 15.688C8.952 15.9213 9.54467 16.038 10.198 16.038C10.6367 16.038 11.024 15.9867 11.36 15.884C11.696 15.7813 12.0367 15.6553 12.382 15.506L12.606 16.234C12.2233 16.4207 11.822 16.5607 11.402 16.654C10.9913 16.7473 10.5807 16.794 10.17 16.794C9.47 16.794 8.812 16.668 8.196 16.416C7.58 16.164 7.03867 15.8047 6.572 15.338C6.11467 14.8713 5.75067 14.316 5.48 13.672C5.21867 13.028 5.088 12.314 5.088 11.53C5.088 10.6993 5.23267 9.962 5.522 9.318C5.81133 8.66467 6.20333 8.11867 6.698 7.68C7.19267 7.232 7.75733 6.89133 8.392 6.658C9.036 6.42467 9.708 6.308 10.408 6.308ZM11.094 13.532C11.262 13.448 11.3973 13.3547 11.5 13.252C11.612 13.14 11.6913 13.0233 11.738 12.902C11.7847 12.7713 11.808 12.636 11.808 12.496V11.964C11.6773 11.9267 11.472 11.8707 11.192 11.796C10.912 11.712 10.5947 11.67 10.24 11.67C9.95067 11.67 9.694 11.7073 9.47 11.782C9.246 11.8473 9.06867 11.964 8.938 12.132C8.80733 12.3 8.742 12.5147 8.742 12.776C8.742 12.9907 8.78867 13.1773 8.882 13.336C8.97533 13.4853 9.106 13.602 9.274 13.686C9.442 13.77 9.64267 13.812 9.876 13.812C10.0627 13.812 10.268 13.7887 10.492 13.742C10.716 13.6953 10.9167 13.6253 11.094 13.532Z" fill="white"/>
</svg>
