<svg width="17" height="18" viewBox="0 0 17 18" fill="none" xmlns="http://www.w3.org/2000/svg">
<path d="M16.7517 14.93C16.7599 15.2693 16.7012 15.6069 16.5789 15.9236C16.4565 16.2402 16.273 16.5296 16.0388 16.7753C15.8046 17.0209 15.5243 17.218 15.2139 17.3553C14.9035 17.4926 14.569 17.5674 14.2297 17.5754H5.85205C5.67158 17.5644 5.50282 17.4823 5.38263 17.3472C5.26245 17.2122 5.20058 17.035 5.21056 16.8545C5.20058 16.6739 5.26245 16.4968 5.38263 16.3617C5.50282 16.2266 5.67158 16.1446 5.85205 16.1335H14.2297C14.5536 16.1377 14.8659 16.0135 15.0983 15.7879C15.3307 15.5623 15.4643 15.2538 15.4697 14.93V3.38886C15.464 3.06519 15.3304 2.75694 15.098 2.53157C14.8656 2.3062 14.5534 2.18205 14.2297 2.18631H5.85205C5.67555 2.16519 5.51291 2.08011 5.39492 1.94716C5.27692 1.81421 5.21176 1.64262 5.21176 1.46487C5.21176 1.28711 5.27692 1.11552 5.39492 0.982573C5.51291 0.849623 5.67555 0.764542 5.85205 0.743429H14.2297C14.5693 0.751074 14.904 0.825598 15.2147 0.962734C15.5255 1.09987 15.8061 1.29693 16.0406 1.54264C16.2751 1.78834 16.4589 2.07788 16.5814 2.39467C16.7039 2.71147 16.7627 3.04931 16.7545 3.38886L16.7517 14.93ZM10.5482 9.92903H3.34782L5.96613 12.5473C6.03293 12.6147 6.08581 12.6946 6.12176 12.7823C6.1577 12.8701 6.176 12.9642 6.17561 13.059C6.17522 13.1539 6.15614 13.2477 6.11948 13.3352C6.08282 13.4227 6.02928 13.5021 5.96192 13.569C5.82589 13.7039 5.64183 13.7792 5.45024 13.7784C5.25866 13.7776 5.07523 13.7008 4.94031 13.5647L1.09326 9.7205C1.02619 9.65346 0.972992 9.57387 0.936694 9.48626C0.900396 9.39866 0.881714 9.30476 0.881714 9.20993C0.881714 9.1151 0.900396 9.0212 0.936694 8.9336C0.972992 8.84599 1.02619 8.7664 1.09326 8.69936L4.94031 4.85044C5.00674 4.78091 5.08639 4.72535 5.17458 4.68703C5.26277 4.64871 5.35773 4.62839 5.45389 4.62727C5.55004 4.62615 5.64545 4.64425 5.73451 4.68052C5.82357 4.71678 5.90449 4.77046 5.97252 4.83843C6.04054 4.90639 6.09431 4.98726 6.13065 5.07629C6.16699 5.16532 6.18518 5.26071 6.18415 5.35687C6.18312 5.45302 6.16289 5.548 6.12465 5.63623C6.0864 5.72446 6.03092 5.80416 5.96145 5.87065L3.34314 8.48896H10.5435C10.7829 8.48896 10.9765 8.81251 10.9765 9.20993C10.9765 9.60735 10.7876 9.92903 10.5482 9.92903Z" fill="#686969"/>
</svg>
